<svg xmlns="http://www.w3.org/2000/svg" xmlns:xlink="http://www.w3.org/1999/xlink" width="500" zoomAndPan="magnify" viewBox="0 0 375 374.999991" height="500" preserveAspectRatio="xMidYMid meet" version="1.2"><defs><clipPath id="93b425ff57"><path d="M 17.714844 23.5 L 350.714844 23.5 L 350.714844 356.5 L 17.714844 356.5 Z M 17.714844 23.5 "/></clipPath></defs><g id="15999d7f91"><g clip-rule="nonzero" clip-path="url(#93b425ff57)"><path style=" stroke:none;fill-rule:nonzero;fill:#6f0e06;fill-opacity:1;" d="M 339.089844 165.175781 C 339.15625 160.1875 338.359375 155.203125 336.5625 150.613281 C 333.636719 143.300781 327.988281 135.058594 315.421875 133.128906 C 321.804688 123.421875 320.007812 114.117188 317.015625 107.203125 C 315.089844 102.679688 312.097656 98.625 308.507812 95.101562 C 294.613281 81.472656 300.398438 70.902344 300.398438 70.902344 C 300.398438 70.902344 289.824219 76.6875 276.195312 62.792969 C 272.671875 59.203125 268.617188 56.277344 264.097656 54.28125 C 256.917969 51.15625 247.011719 49.363281 236.773438 56.875 C 234.378906 45.507812 226.535156 40.1875 219.621094 37.394531 C 215.035156 35.601562 210.046875 34.804688 205.0625 34.871094 C 185.582031 35.070312 182.191406 23.566406 182.191406 23.566406 C 182.191406 23.566406 178.800781 35.136719 159.386719 34.9375 C 154.402344 34.871094 149.417969 35.667969 144.828125 37.460938 C 137.515625 40.386719 129.273438 46.039062 127.34375 58.605469 C 117.636719 52.222656 108.332031 54.015625 101.417969 57.007812 C 96.894531 58.9375 92.839844 61.929688 89.316406 65.519531 C 75.6875 79.347656 65.117188 73.5625 65.117188 73.5625 C 65.117188 73.5625 70.902344 84.132812 57.007812 97.761719 C 53.417969 101.285156 50.492188 105.339844 48.496094 109.863281 C 45.371094 117.042969 43.578125 126.945312 51.089844 137.183594 C 39.722656 139.578125 34.402344 147.421875 31.609375 154.335938 C 29.816406 158.925781 29.015625 163.910156 29.082031 168.898438 C 29.214844 188.308594 17.714844 191.699219 17.714844 191.699219 C 17.714844 191.699219 29.285156 195.089844 29.082031 214.503906 C 29.015625 219.488281 29.816406 224.476562 31.609375 229.0625 C 34.535156 236.375 40.1875 244.621094 52.75 246.546875 C 46.367188 256.253906 48.164062 265.5625 51.15625 272.476562 C 53.082031 276.996094 56.074219 281.050781 59.664062 284.574219 C 73.558594 298.203125 67.777344 308.773438 67.777344 308.773438 C 67.777344 308.773438 78.347656 302.992188 91.976562 316.886719 C 95.5 320.476562 99.554688 323.402344 104.074219 325.394531 C 111.253906 328.519531 121.160156 330.316406 131.398438 322.804688 C 133.792969 334.171875 141.636719 339.488281 148.617188 342.28125 C 153.207031 344.078125 158.191406 344.875 163.179688 344.808594 C 182.589844 344.675781 185.980469 356.175781 185.980469 356.175781 C 185.980469 356.175781 189.371094 344.675781 208.785156 344.808594 C 213.769531 344.875 218.757812 344.078125 223.34375 342.28125 C 230.65625 339.355469 238.902344 333.707031 240.828125 321.140625 C 250.535156 327.523438 259.84375 325.726562 266.757812 322.738281 C 271.277344 320.808594 275.332031 317.816406 278.855469 314.226562 C 292.484375 300.332031 303.054688 306.117188 303.054688 306.117188 C 303.054688 306.117188 297.273438 295.546875 311.167969 281.917969 C 314.757812 278.394531 317.683594 274.335938 319.675781 269.816406 C 322.800781 262.636719 324.597656 252.730469 317.082031 242.492188 C 328.453125 240.097656 333.769531 232.253906 336.5625 225.273438 C 338.359375 220.6875 339.15625 215.699219 339.089844 210.714844 C 338.957031 191.300781 350.457031 187.910156 350.457031 187.910156 C 350.457031 187.910156 338.890625 184.652344 339.089844 165.175781 Z M 339.089844 165.175781 "/></g></g></svg>