<svg xmlns="http://www.w3.org/2000/svg" width="160" height="160" viewBox="0 0 160 160">
  <defs>
    <pattern id="geometricPattern" patternUnits="userSpaceOnUse" width="160" height="160">
      <g opacity="0.15" stroke="#059669" fill="none">
        <!-- Large diamond grid -->
        <path d="M0,80 L80,0 L160,80 L80,160 Z" stroke-width="0.5" />
        <path d="M40,80 L80,40 L120,80 L80,120 Z" stroke-width="0.5" />
        
        <!-- Horizontal and vertical lines -->
        <line x1="0" y1="80" x2="160" y2="80" stroke-width="0.5" />
        <line x1="80" y1="0" x2="80" y2="160" stroke-width="0.5" />
        
        <!-- Diagonal lines -->
        <line x1="40" y1="40" x2="120" y2="120" stroke-width="0.3" />
        <line x1="40" y1="120" x2="120" y2="40" stroke-width="0.3" />
        
        <!-- Small decorative elements -->
        <circle cx="80" cy="80" r="10" stroke-width="0.5" />
        <circle cx="80" cy="80" r="5" stroke-width="0.5" />
        
        <circle cx="40" cy="40" r="5" stroke-width="0.5" />
        <circle cx="120" cy="40" r="5" stroke-width="0.5" />
        <circle cx="40" cy="120" r="5" stroke-width="0.5" />
        <circle cx="120" cy="120" r="5" stroke-width="0.5" />
        
        <!-- Triangle accents -->
        <path d="M75,25 L85,25 L80,15 Z" stroke-width="0.5" />
        <path d="M75,135 L85,135 L80,145 Z" stroke-width="0.5" />
        <path d="M25,75 L25,85 L15,80 Z" stroke-width="0.5" />
        <path d="M135,75 L135,85 L145,80 Z" stroke-width="0.5" />
        
        <!-- Small squares at intersections -->
        <rect x="75" y="35" width="10" height="10" stroke-width="0.5" />
        <rect x="75" y="115" width="10" height="10" stroke-width="0.5" />
        <rect x="35" y="75" width="10" height="10" stroke-width="0.5" />
        <rect x="115" y="75" width="10" height="10" stroke-width="0.5" />
      </g>
    </pattern>
  </defs>
  <rect width="100%" height="100%" fill="url(#geometricPattern)" />
</svg> 