<svg xmlns="http://www.w3.org/2000/svg" width="240" height="240" viewBox="0 0 240 240">
  <defs>
    <pattern id="mandalaPattern" patternUnits="userSpaceOnUse" width="240" height="240">
      <g transform="translate(120, 120)" stroke="#ba1a5d" fill="none" opacity="0.15">
        <circle cx="0" cy="0" r="100" stroke-width="0.5" />
        <circle cx="0" cy="0" r="80" stroke-width="0.5" />
        <circle cx="0" cy="0" r="60" stroke-width="0.5" />
        <circle cx="0" cy="0" r="40" stroke-width="0.5" />
        <circle cx="0" cy="0" r="20" stroke-width="0.5" />
        
        <!-- Radial lines -->
        <line x1="0" y1="-100" x2="0" y2="100" stroke-width="0.3" />
        <line x1="-100" y1="0" x2="100" y2="0" stroke-width="0.3" />
        <line x1="-70.7" y1="-70.7" x2="70.7" y2="70.7" stroke-width="0.3" />
        <line x1="-70.7" y1="70.7" x2="70.7" y2="-70.7" stroke-width="0.3" />
        
        <!-- Decorative petals -->
        <path d="M0,-20 Q20,-60 0,-100 Q-20,-60 0,-20" stroke-width="0.5" />
        <path d="M0,20 Q20,60 0,100 Q-20,60 0,20" stroke-width="0.5" />
        <path d="M-20,0 Q-60,20 -100,0 Q-60,-20 -20,0" stroke-width="0.5" />
        <path d="M20,0 Q60,20 100,0 Q60,-20 20,0" stroke-width="0.5" />
        
        <path d="M-14.14,-14.14 Q-42.42,-42.42 -70.7,-70.7 Q-42.42,-42.42 -14.14,-14.14" stroke-width="0.5" />
        <path d="M14.14,14.14 Q42.42,42.42 70.7,70.7 Q42.42,42.42 14.14,14.14" stroke-width="0.5" />
        <path d="M-14.14,14.14 Q-42.42,42.42 -70.7,70.7 Q-42.42,42.42 -14.14,14.14" stroke-width="0.5" />
        <path d="M14.14,-14.14 Q42.42,-42.42 70.7,-70.7 Q42.42,-42.42 14.14,-14.14" stroke-width="0.5" />
      </g>
    </pattern>
  </defs>
  <rect width="100%" height="100%" fill="url(#mandalaPattern)" />
</svg> 