<svg xmlns="http://www.w3.org/2000/svg" width="120" height="120" viewBox="0 0 120 120">
  <defs>
    <pattern id="paisleyPattern" patternUnits="userSpaceOnUse" width="120" height="120">
      <path d="M60,30 Q80,20 85,40 T95,70 Q75,110 45,80 T25,50 Q35,35 60,30" fill="#ba1a5d" opacity="0.2" />
      <path d="M65,35 Q75,30 80,40 T85,60 Q70,90 50,70 T35,50 Q40,40 65,35" fill="#ba1a5d" opacity="0.1" />
      <path d="M30,50 Q40,35 55,40 T70,60 Q55,85 35,70 T22,45 Q25,40 30,50" fill="#ba1a5d" opacity="0.15" />
    </pattern>
  </defs>
  <rect width="100%" height="100%" fill="url(#paisleyPattern)" />
</svg> 